<svg xmlns="http://www.w3.org/2000/svg" viewBox="0 0 24 24" fill="#E60023">
  <path d="M12 0C5.373 0 0 5.372 0 12s5.373 12 12 12c6.628 0 12-5.372 12-12S18.628 0 12 0zm0 19c-.721 0-1.418-.109-2.073-.312.286-.459.713-1.227.87-1.835l.437-1.664c.229.436.895.803 1.604.803 2.111 0 3.633-1.941 3.633-4.354 0-2.312-1.888-4.042-4.316-4.042-2.991 0-4.594 2.027-4.594 4.281 0 .989.527 2.23 1.369 2.621.138.063.212.035.245-.097.025-.1.085-.338.111-.439.037-.142.023-.193-.08-.318-.225-.272-.414-.771-.414-1.314 0-1.291.967-2.591 2.7-2.591 1.471 0 2.58.958 2.58 2.378 0 1.595-.708 2.700-1.613 2.700-.504 0-.93-.417-.803-.928.151-.608.444-1.265.444-1.703 0-.394-.211-.723-.65-.723-.515 0-.928.533-.928 1.249 0 .456.154.765.154.765s-.503 2.13-.595 2.52c-.109.462-.075.924-.057 1.334C6.623 17.85 4.813 15.13 4.813 12c0-3.97 3.217-7.187 7.187-7.187S19.187 8.03 19.187 12s-3.217 7.187-7.187 7.187z"/>
</svg>
